<?xml version="1.0" encoding="UTF-8"?>
<svg id="_レイヤー_1" data-name="レイヤー_1" xmlns="http://www.w3.org/2000/svg" xmlns:xlink="http://www.w3.org/1999/xlink" version="1.1" viewBox="0 0 632.46 619.23">
  <!-- Generator: Adobe Illustrator 30.4.0, SVG Export Plug-In . SVG Version: 2.1.4 Build 226)  -->
  <defs>
    <style>
      .st0 {
        fill: url(#_名称未設定グラデーション_4);
      }

      .st1 {
        fill: #ff2e9b;
      }

      .st2 {
        fill: #fff;
      }
    </style>
    <linearGradient id="_名称未設定グラデーション_4" data-name="名称未設定グラデーション 4" x1="239.19" y1="204.46" x2="239.19" y2="351.25" gradientUnits="userSpaceOnUse">
      <stop offset=".28" stop-color="#ff2e9b"/>
      <stop offset="1" stop-color="#ceff05"/>
    </linearGradient>
  </defs>
  <polygon class="st1" points="200.65 161.89 187.62 171.66 181.66 167.18 194.68 157.42 187.23 151.82 174.2 161.59 168.24 157.12 181.26 147.35 173.81 141.76 160.78 151.53 154.82 147.05 167.84 137.29 160.39 131.69 147.36 141.46 141.78 137.28 154.81 127.51 147.35 121.92 134.33 131.69 128.36 127.21 141.39 117.44 133.93 111.85 120.91 121.62 114.94 117.15 127.96 107.38 120.51 101.79 107.48 111.55 101.52 107.08 114.54 97.31 107.09 91.72 94.06 101.49 88.27 97.14 85.79 99.01 192.59 179.11 193.83 178.18 193.84 178.18 208.1 167.48 200.65 161.89"/>
  <path class="st2" d="M241.16,203.45c-17.35,0-31.07-3.98-41.13-11.95-10.07-7.96-15.1-18.26-15.1-30.88,0-13.57,4.9-24.06,14.71-31.47,9.8-7.41,23.99-11.12,42.56-11.12h56.23v-6.63c0-24.29-14.32-36.44-42.95-36.44-23.26,0-37.22,8.05-41.91,24.14h-24.99c2.43-13.57,9.67-24.14,21.73-31.71,12.06-7.57,27.37-11.36,45.94-11.36,21.17,0,37.39,4.61,48.68,13.84,11.28,9.23,16.92,22.52,16.92,39.87v67.44h11.97v23.66h-27.07v-21.3h-10.93c-5.38,7.26-12.84,13.06-22.39,17.39-9.55,4.34-20.3,6.51-32.28,6.51ZM244.29,184.99c9.89,0,18.96-1.89,27.2-5.68,8.24-3.79,14.79-8.87,19.65-15.26,4.86-6.39,7.29-13.45,7.29-21.18v-7.81h-54.4c-24.12,0-36.18,8.2-36.18,24.61,0,7.73,3.25,13.88,9.76,18.46,6.51,4.58,15.4,6.86,26.68,6.86Z"/>
  <path class="st2" d="M369.23,37.56c-4.34,0-8.03-1.38-11.06-4.14-3.04-2.76-4.56-6.11-4.56-10.06s1.52-7.3,4.56-10.06c3.03-2.76,6.72-4.14,11.06-4.14s8.02,1.38,11.06,4.14c3.03,2.76,4.56,6.12,4.56,10.06s-1.52,7.3-4.56,10.06c-3.04,2.76-6.73,4.14-11.06,4.14ZM356.99,200.84V58.86h24.47v141.98h-24.47Z"/>
  <path class="st2" d="M477.25,260.48c-21,0-38.09-4.02-51.28-12.07-13.19-8.05-21-19.17-23.43-33.37h26.03c4.86,17.35,21.08,26.03,48.68,26.03,17.18,0,30.37-3.71,39.57-11.12,9.2-7.42,13.8-18.07,13.8-31.95v-24.14h-1.3c-3.99,8.52-10.67,15.14-20.04,19.88-9.37,4.73-20.3,7.1-32.8,7.1-14.93,0-27.85-2.96-38.78-8.87-10.93-5.92-19.35-14.28-25.25-25.08-5.9-10.8-8.85-23.62-8.85-38.45,0-22.24,6.59-39.87,19.78-52.89,13.19-13.02,31.06-19.52,53.62-19.52,12.49,0,23.17,2.05,32.02,6.15,8.85,4.1,15.88,10.1,21.08,17.98h10.93v-21.3h27.07v23.66h-13.01v117.14c0,19.09-6.81,33.99-20.43,44.72-13.63,10.73-32.76,16.09-57.4,16.09ZM482.19,181.44c14.4,0,26.07-3.86,35.01-11.6,8.94-7.73,13.41-17.9,13.41-30.53v-21.77c0-12.62-4.47-22.79-13.41-30.53-8.94-7.73-20.61-11.6-35.01-11.6-16.83,0-30.06,4.66-39.7,13.96-9.63,9.31-14.45,22.33-14.45,39.05s4.82,29.74,14.45,39.05c9.63,9.31,22.86,13.96,39.7,13.96Z"/>
  <path class="st2" d="M603.49,37.56c-4.34,0-8.03-1.38-11.06-4.14-3.04-2.76-4.56-6.11-4.56-10.06s1.52-7.3,4.56-10.06c3.03-2.76,6.72-4.14,11.06-4.14s8.02,1.38,11.06,4.14c3.03,2.76,4.56,6.12,4.56,10.06s-1.52,7.3-4.56,10.06c-3.04,2.76-6.73,4.14-11.06,4.14ZM591.26,200.84V58.86h24.47v141.98h-24.47Z"/>
  <path class="st2" d="M7.57,511.31v-198.66h101.98c21.94,0,39.21,4.7,51.8,14.1,12.59,9.4,18.89,22.85,18.89,40.35,0,8.5-2.02,16.27-6.07,23.3-4.05,7.03-10.57,13-19.56,17.9v1.23c8.09,0,14.39,1.92,18.89,5.76,4.49,3.84,6.74,9.28,6.74,16.31v79.71h-25.9v-83.39H33.47v83.39H7.57ZM33.47,408.79h73.38c14.93,0,26.57-3.31,34.94-9.93,8.36-6.62,12.54-16.06,12.54-28.33s-4.18-21.71-12.54-28.33c-8.36-6.62-20.01-9.93-34.94-9.93H33.47v76.52Z"/>
  <path class="st2" d="M257.18,514c-17.99,0-32.2-4.13-42.63-12.39-10.43-8.25-15.65-18.92-15.65-32.01,0-14.06,5.08-24.93,15.24-32.62,10.16-7.68,24.86-11.53,44.11-11.53h58.27v-6.87c0-25.18-14.84-37.77-44.52-37.77-24.1,0-38.58,8.34-43.44,25.02h-25.9c2.52-14.06,10.02-25.02,22.53-32.87,12.5-7.85,28.37-11.77,47.62-11.77,21.94,0,38.76,4.78,50.45,14.35,11.69,9.56,17.54,23.34,17.54,41.33v69.9h12.41v24.53h-28.06v-22.07h-11.33c-5.58,7.52-13.31,13.53-23.2,18.03-9.89,4.5-21.04,6.74-33.45,6.74ZM260.41,494.87c10.25,0,19.65-1.96,28.19-5.89,8.54-3.92,15.33-9.2,20.37-15.82,5.03-6.62,7.55-13.94,7.55-21.95v-8.09h-56.39c-25,0-37.5,8.5-37.5,25.51,0,8.01,3.37,14.39,10.12,19.13,6.74,4.74,15.96,7.11,27.65,7.11Z"/>
  <path class="st2" d="M390.23,342.07c-4.5,0-8.32-1.43-11.47-4.29-3.15-2.86-4.72-6.33-4.72-10.42s1.57-7.56,4.72-10.42c3.14-2.86,6.97-4.29,11.47-4.29s8.32,1.43,11.47,4.29c3.14,2.86,4.72,6.34,4.72,10.42s-1.58,7.57-4.72,10.42c-3.15,2.86-6.97,4.29-11.47,4.29ZM377.55,511.31v-147.16h25.36v147.16h-25.36Z"/>
  <path class="st2" d="M555.17,514.25c-21.95,0-39.3-4.13-52.07-12.39-12.77-8.25-19.79-19.82-21.04-34.7h25.36c1.26,9.48,5.84,16.52,13.76,21.09,7.91,4.58,19.51,6.87,34.8,6.87,27.52,0,41.28-8.01,41.28-24.04,0-6.54-2.12-11.57-6.34-15.08-4.23-3.51-11.38-6.09-21.45-7.73l-35.34-5.89c-29.32-4.91-43.98-17.66-43.98-38.26,0-13.24,5.48-23.71,16.46-31.39,10.97-7.68,25.99-11.53,45.05-11.53s35.3,3.92,47.08,11.77c11.78,7.85,18.57,18.8,20.37,32.87h-24.82c-1.98-8.66-6.47-15.08-13.49-19.25-7.01-4.17-16.82-6.25-29.41-6.25s-21.31,1.92-27.79,5.76c-6.48,3.84-9.71,9.44-9.71,16.8,0,5.56,2.11,9.93,6.34,13.12,4.22,3.19,11.1,5.6,20.64,7.23l35.07,5.89c15.47,2.62,26.8,7.2,33.99,13.73,7.19,6.54,10.79,15.37,10.79,26.49,0,14.23-5.67,25.26-17,33.11-11.33,7.85-27.52,11.77-48.56,11.77Z"/>
  <path class="st2" d="M337.78,313.09v-72.6h-17.11v-31.11h34.99v17.29h7.99c4.56-5.99,10.17-10.69,16.83-14.09,6.66-3.4,15.18-5.1,25.57-5.1,16.22,0,28.68,3.98,37.36,11.93,8.68,7.95,13.02,18.61,13.02,31.98v61.71h-34.99v-55.49c0-7.14-2.06-12.56-6.18-16.25-4.12-3.69-10.17-5.53-18.16-5.53s-14.04,1.85-18.16,5.53c-4.12,3.69-6.18,9.1-6.18,16.25v55.49h-34.99Z"/>
  <g>
    <path class="st1" d="M151.11,606.54v-4.88l25.06-22.38c3.38-2.98,5.69-5.41,6.94-7.29,1.24-1.88,1.87-3.81,1.87-5.8,0-3.07-1.12-5.48-3.36-7.22-2.24-1.74-5.35-2.61-9.32-2.61-8.55,0-13.33,3.84-14.32,11.53h-6.86c.4-5.38,2.47-9.57,6.23-12.58,3.75-3.01,8.77-4.51,15.03-4.51,3.98,0,7.43.63,10.37,1.9,2.93,1.27,5.22,3.03,6.86,5.29,1.64,2.26,2.46,4.91,2.46,7.93,0,2.49-.77,4.97-2.31,7.46-1.54,2.49-4,5.22-7.38,8.21l-21.86,19.12.15.27h32.67v5.56h-42.22Z"/>
    <path class="st1" d="M268.45,607.35c-7.11,0-12.51-2.41-16.19-7.22-3.68-4.81-5.52-11.83-5.52-21.06s1.84-16.24,5.52-21.06c3.68-4.81,9.08-7.22,16.19-7.22s12.51,2.41,16.19,7.22c3.68,4.81,5.52,11.83,5.52,21.06s-1.84,16.24-5.52,21.06c-3.68,4.82-9.08,7.22-16.19,7.22ZM268.45,601.79c5.02,0,8.78-1.91,11.26-5.73,2.49-3.82,3.73-9.48,3.73-16.99s-1.24-13.22-3.73-17.02c-2.49-3.8-6.24-5.7-11.26-5.7s-8.72,1.89-11.23,5.66c-2.51,3.78-3.77,9.46-3.77,17.06s1.26,13.28,3.77,17.06c2.51,3.78,6.25,5.66,11.23,5.66Z"/>
    <path class="st1" d="M343.56,606.54v-4.88l25.06-22.38c3.38-2.98,5.69-5.41,6.94-7.29,1.24-1.88,1.87-3.81,1.87-5.8,0-3.07-1.12-5.48-3.36-7.22-2.24-1.74-5.35-2.61-9.32-2.61-8.55,0-13.33,3.84-14.32,11.53h-6.86c.4-5.38,2.47-9.57,6.23-12.58,3.75-3.01,8.77-4.51,15.03-4.51,3.98,0,7.43.63,10.37,1.9,2.93,1.27,5.22,3.03,6.86,5.29,1.64,2.26,2.46,4.91,2.46,7.93,0,2.49-.77,4.97-2.31,7.46-1.54,2.49-4,5.22-7.38,8.21l-21.86,19.12.15.27h32.67v5.56h-42.22Z"/>
    <path class="st1" d="M462.24,607.35c-7.26,0-12.88-2.28-16.86-6.85-3.98-4.57-5.97-11.03-5.97-19.39,0-9.86,2-17.37,6-22.55,4-5.18,9.83-7.76,17.49-7.76,5.07,0,9.29,1.13,12.64,3.39,3.36,2.26,5.61,5.47,6.75,9.63h-6.71c-.9-2.44-2.42-4.29-4.59-5.56-2.16-1.27-4.86-1.9-8.09-1.9-5.42,0-9.5,1.84-12.23,5.53-2.74,3.69-4.23,9.35-4.48,16.99h.3c1.54-2.53,3.68-4.46,6.42-5.8,2.73-1.33,5.92-2,9.55-2,4.03,0,7.57.75,10.63,2.24,3.06,1.49,5.43,3.57,7.12,6.24,1.69,2.67,2.54,5.76,2.54,9.29,0,3.71-.86,6.95-2.57,9.73-1.72,2.78-4.1,4.94-7.16,6.48-3.06,1.54-6.65,2.31-10.78,2.31ZM461.95,601.79c4.18,0,7.55-1.15,10.11-3.46,2.56-2.31,3.84-5.36,3.84-9.15s-1.41-6.8-4.21-9.15c-2.81-2.35-6.45-3.53-10.93-3.53-4.08,0-7.41,1-10,2.98-2.59,1.99-3.88,4.54-3.88,7.66,0,4.39,1.39,7.92,4.18,10.61,2.78,2.69,6.42,4.03,10.89,4.03Z"/>
  </g>
  <polygon class="st1" points="205.43 9.17 167.93 9.17 40.53 104.77 39.48 104.77 39.48 9.17 14.5 9.17 14.5 200.84 39.48 200.84 39.48 133.83 205.43 9.17"/>
  <g>
    <rect class="st2" x="437.22" y="471.78" width="25.36" height="40.74"/>
    <rect class="st2" x="437.22" y="306.5" width="25.36" height="28.11"/>
    <g>
      <rect class="st2" x="437.22" y="452.06" width="25.36" height="9"/>
      <rect class="st2" x="437.22" y="434.06" width="25.36" height="9"/>
      <rect class="st2" x="437.22" y="416.06" width="25.36" height="9"/>
      <rect class="st2" x="437.22" y="398.06" width="25.36" height="9"/>
      <rect class="st2" x="437.22" y="380.06" width="25.36" height="9"/>
      <rect class="st2" x="437.22" y="362.06" width="25.36" height="9"/>
      <rect class="st2" x="437.22" y="344.06" width="25.36" height="9"/>
    </g>
  </g>
  <path class="st0" d="M261.51,333.19l-20.47,15.35c-1.06.8-2.52.8-3.58,0l-20.47-15.35c-1.59-1.19-1.59-3.58,0-4.77l15.01-11.26-5.98-4.48-13.04,9.78-7.46-5.59,13.04-9.78-5.97-4.47-13.04,9.78-7.46-5.59,13.04-9.78-5.96-4.47-13.04,9.78-7.46-5.59,13.04-9.78-5.97-4.47-13.04,9.78-7.46-5.59,14.29-10.71h.01s1.24-.92,1.24-.92l53.68,40.26.29-.22c2.65-1.99,6.3-1.99,8.95,0l17.79,13.34c1.59,1.19,1.59,3.58,0,4.77ZM346.37,264.63l-20.47-15.35c-1.06-.8-2.52-.8-3.58,0l-20.47,15.35c-1.59,1.19-1.59,3.58,0,4.77l1.65,1.24-53.55,40.16,1.28.96-.13.09,14.15,10.61,7.46-5.59-12.94-9.7,5.97-4.47,12.94,9.7,7.46-5.59-12.94-9.7,5.97-4.47,12.94,9.7,7.46-5.59-12.94-9.7,5.97-4.47,12.94,9.7,7.46-5.59-12.94-9.7,5.96-4.47,16.34,12.26c1.06.8,2.52.8,3.58,0l20.47-15.35c1.59-1.19,1.59-3.58,0-4.77ZM216.98,205.8l17.79,13.34c2.65,1.99,6.3,1.99,8.95,0l.36-.27,53.5,40.13,1.24-.93h0s14.27-10.7,14.27-10.7l-7.46-5.59-13.02,9.77-5.97-4.47,13.02-9.77-7.46-5.59-13.02,9.77-5.97-4.47,13.02-9.77-7.46-5.59-13.02,9.77-5.97-4.47,13.02-9.77-7.46-5.59-13.02,9.77-5.79-4.34,14.94-11.2c1.59-1.19,1.59-3.58,0-4.77l-20.47-15.35c-1.06-.8-2.52-.8-3.58,0l-20.47,15.35c-1.59,1.19-1.59,3.58,0,4.77ZM176.53,264.63l-1.6-1.2,53.61-40.2-2.49-1.86-.08.06-13.13-9.85-7.46,5.59,13.13,9.85-5.97,4.47-13.13-9.85-7.46,5.59,13.13,9.85-5.97,4.47-13.13-9.85-7.46,5.59,13.13,9.85-5.97,4.47-13.13-9.85-7.46,5.59,13.13,9.85-5.8,4.35-16.38-12.29c-1.06-.8-2.52-.8-3.58,0l-20.47,15.35c-1.59,1.19-1.59,3.58,0,4.77l20.47,15.35c1.06.8,2.52.8,3.58,0l20.47-15.35c1.59-1.19,1.59-3.58,0-4.77ZM262.04,266.66h-14.63v-1.12h-6.71v-4.78h-1.1v-10.97h-.75v10.97h-1.13v4.78h-7.03v1.12h-14.63v.75h14.63v1.12h7.03v4.78h1.13v10.97h.75v-10.97h1.1v-4.78h6.71v-1.12h14.63v-.75ZM189.05,267.63c-.26-.19-.3-.46-.3-.6,0-.14.04-.4.3-.6l14.02-10.52-2.49-1.86-13.33,10c-.95.71-1.49,1.8-1.49,2.98,0,1.18.54,2.27,1.49,2.98l13.63,10.22-.19-.26,2.41-1.81-14.06-10.54ZM239.21,229.75c.79,0,1.58.25,2.24.74l12.62,9.46,2.49-1.86-13.31-9.98c-2.37-1.78-5.68-1.78-8.05,0l-13.63,10.22,2.49,1.86,12.94-9.7c.66-.49,1.45-.74,2.24-.74ZM289.38,267.63l-14.38,10.78,2.49,1.86,13.68-10.26c.95-.71,1.49-1.8,1.49-2.98,0-1.18-.54-2.27-1.49-2.98l-13.65-10.24-2.49,1.86,14.34,10.76c.26.2.3.46.3.6,0,.14-.04.4-.3.6ZM236.98,303.58l-12.9-9.68-2.49,1.86,13.6,10.2c1.18.89,2.61,1.33,4.03,1.33s2.84-.44,4.03-1.33l13.28-9.96-2.49-1.86-12.58,9.44c-1.32.99-3.16.99-4.47,0Z"/>
</svg>